# xmcd
#
# Track frame offsets: 
#        150
#        25322
#        46983
#        64682
#        84709
#        106956
#        134231
#        153616
#        170637
#        186335
#
# Disc length: 2753 seconds
#
# Revision: 0
# Processed by: cddbd v1.5.2PL0 Copyright (c) Steve Scherf et al.
# Submitted via: ExactAudioCopy v1.0b1
#
DISCID=900abf0a
DTITLE=Neal Black - Before Daylight
DYEAR=2014
DGENRE=Blues
TTITLE0=Jesus and Johnny Walker
TTITLE1=Hangman's Tree
TTITLE2=The Peace Of Darkness
TTITLE3=Mama's Baby
TTITLE4=The Same Color
TTITLE5=The Road Back Home
TTITLE6=Before Daylight
TTITLE7=Goin Down The Road
TTITLE8=American Dream
TTITLE9=Dead By Now
EXTD=
EXTT0=
EXTT1=
EXTT2=
EXTT3=
EXTT4=
EXTT5=
EXTT6=
EXTT7=
EXTT8=
EXTT9=
PLAYORDER=
